<?xml version="1.0" encoding="UTF-8" standalone="no"?>
<svg width="14px" height="16px" viewBox="0 0 14 16" version="1.1" xmlns="http://www.w3.org/2000/svg" xmlns:xlink="http://www.w3.org/1999/xlink">
    <!-- Generator: sketchtool 41.2 (35397) - http://www.bohemiancoding.com/sketch -->
    <title>9A7DFD9F-2C43-42C6-AF1D-9C53878D98BA</title>
    <desc>Created with sketchtool.</desc>
    <defs></defs>
    <g id="Page-1" stroke="none" stroke-width="1" fill="none" fill-rule="evenodd">
        <g id="Desktop-HD" transform="translate(-1241.000000, -46.000000)" fill="#E05A5A">
            <path d="M1245.38943,55.1925421 C1245.30797,55.1110826 1245.2345,55.0280259 1245.16422,54.943372 C1244.06851,53.6128672 1244.14358,51.6306866 1245.38943,50.386433 C1246.71354,49.0623173 1248.86823,49.0623173 1250.19394,50.3880303 C1251.45576,51.6498535 1251.51326,53.6607845 1250.37283,54.9944838 C1250.31533,55.0631653 1250.25783,55.1286523 1250.19394,55.1925421 C1248.86823,56.5182552 1246.71354,56.5166579 1245.38943,55.1925421 M1252.5962,57.5932008 C1255.24602,54.943372 1255.24602,50.6387977 1252.5946,47.9873716 C1249.94317,45.3375428 1245.6386,45.3375428 1242.98877,47.9873716 C1240.33734,50.6372005 1240.33734,54.943372 1242.98717,57.594798 C1243.07023,57.6778547 1243.15808,57.7609115 1243.24593,57.8407737 C1243.26829,57.8663296 1243.28107,57.888691 1243.30183,57.9094552 L1247.11605,61.7220781 C1247.48501,62.0926389 1248.09835,62.0910416 1248.46253,61.7268699 L1252.20487,57.9845257 C1252.24001,57.9493863 1252.26716,57.9126497 1252.28793,57.8807048 C1252.39654,57.7832729 1252.49876,57.6906327 1252.5962,57.5932008" id="Fill-1"></path>
        </g>
    </g>
</svg>