<?xml version="1.0" encoding="UTF-8" standalone="no"?>
<svg width="121px" height="43px" viewBox="0 0 121 43" version="1.1" xmlns="http://www.w3.org/2000/svg" xmlns:xlink="http://www.w3.org/1999/xlink">
    <!-- Generator: sketchtool 41.2 (35397) - http://www.bohemiancoding.com/sketch -->
    <title>D25A11B1-3C70-4DD6-B461-E2E7AE6DFFE4</title>
    <desc>Created with sketchtool.</desc>
    <defs>
        <polygon id="path-1" points="0.296468502 23.1538462 42.2253737 23.1538462 42.2253737 0.0140025641 0.296468502 0.0140025641"></polygon>
    </defs>
    <g id="Page-1" stroke="none" stroke-width="1" fill="none" fill-rule="evenodd">
        <g id="Desktop-HD" transform="translate(-58.000000, -24.000000)">
            <g id="Group-Copy-2" transform="translate(58.000000, 24.000000)">
                <path d="M21.5900282,12.3092469 C19.2677163,12.4386145 17.279542,10.6741444 17.1492912,8.36758026 C17.0190405,6.06138368 18.7955573,4.08669137 21.1178692,3.95695633 C23.4401811,3.82758881 25.4279854,5.59242642 25.5586062,7.898623 C25.688857,10.2051871 23.9123401,12.1798794 21.5900282,12.3092469 M25.1526827,0.912776844 C21.0579242,-1.17180435 16.0369793,0.434999066 13.9381658,4.50199052 C12.1017041,8.06069992 13.3760894,12.3923068 16.1150557,14.606623 C14.4680496,20.1165033 12.1087346,17.8426486 15.9059885,28.5481786 C16.2171842,29.4254521 16.1361475,31.0594521 15.5222668,32.2491187 C14.2212392,34.7703153 11.108542,35.7662982 8.57013219,34.4740931 C6.03135238,33.1815204 5.68019336,30.327717 6.32959703,27.5691016 C7.24024229,23.7002042 5.70091507,20.7346743 3.87629427,19.6820931 C2.94085696,19.1425717 2.26999152,19.1381615 2.26999152,19.1381615 C2.26999152,19.1381615 2.57008632,21.5689478 2.17637378,23.4028794 C1.97137684,24.3562298 0.548239228,26.7682726 0.329181124,27.6760503 C-0.934843341,32.9106572 1.50587837,38.5175632 6.54273464,41.0817598 C12.4532331,44.0910247 19.700282,41.7715974 22.7300924,35.9011786 C23.3894869,34.6233068 23.4919854,33.8158623 23.7554472,32.4839649 C25.1859854,25.253717 15.1337346,21.6990503 20.0536612,16.2663495 C23.6407377,16.8279221 27.3632453,14.7698025 28.7664013,12.0512469 C30.8652148,7.98425548 29.2474411,2.99772556 25.1526827,0.912776844" id="Fill-1" fill="#FFD47E"></path>
                <g id="Page-1" transform="translate(26.642202, 13.230769)">
                    <path d="M21.1379969,4.86425556 C22.494159,4.86425556 23.6094312,3.80138376 23.6094312,2.45441795 C23.6094312,1.10745214 22.494159,0.00011025641 21.1379969,0.00011025641 C19.7814648,0.00011025641 18.6965352,1.10745214 18.6965352,2.45441795 C18.6965352,3.80138376 19.7814648,4.86425556 21.1379969,4.86425556" id="Fill-1" fill="#FFD47E"></path>
                    <path d="M22.433992,18.8738393 C22.2230746,18.9635145 22.0269584,19.0682581 21.4393498,19.0682581 C20.5805089,19.0682581 20.1886465,18.7841641 20.1886465,17.931147 C20.1886465,17.6165487 20.218619,17.2876171 20.3092765,16.9428821 L22.5242795,6.52548889 L18.0787321,6.52548889 L15.983989,16.3592581 C15.8411572,17.0979761 15.7549401,17.7385658 15.7464294,18.2755145 C15.3390257,18.7753436 14.8457749,19.0682581 14.1656587,19.0682581 C13.2161602,19.0682581 12.9297566,18.5445402 12.9297566,17.7811983 C12.9297566,16.0600957 14.4217199,12.3481299 14.4217199,9.86331795 C14.4217199,7.40864274 12.9600991,6.40567692 10.9859859,6.40567692 C10.0364875,6.40567692 8.71029786,6.64566838 7.38410826,8.11207863 L9.04184526,0.388984615 L4.47566789,1.0027453 L0.000148012233,21.8522325 L4.44569541,21.8522325 L6.54043853,12.0188308 C7.00741713,10.4469419 7.83628563,9.18965128 8.9515578,9.18965128 C9.69013884,9.18965128 10.06683,9.71373675 10.06683,10.7615402 C10.06683,12.7222667 8.68032538,16.4937709 8.68032538,18.5746769 C8.68032538,20.3255487 9.59948135,22.0319504 12.3121755,22.0319504 C13.3793437,22.0319504 14.7588177,21.7585145 16.0653957,20.1877282 C16.5908391,21.4626598 17.7101817,22.0319504 19.0430318,22.0319504 C20.6707963,22.0319504 22.2833896,21.0591214 22.433992,18.8738393" id="Fill-3" fill="#FFD47E"></path>
                    <path d="M29.0007768,19.3677145 C28.2925382,19.3677145 27.9458196,19.0082786 27.8251896,18.6642786 L29.6487003,10.0878 C30.2363089,9.10027009 31.0655474,8.57655214 31.7737859,8.57655214 C32.331052,8.57655214 33.3256942,8.77097094 33.3256942,11.1209026 C33.3256942,13.9794838 32.2407645,19.3677145 29.0007768,19.3677145 M33.7778716,6.37583419 C32.210792,6.37583419 31.0655474,6.92968889 30.1763639,7.69303077 L30.673685,5.38793675 L26.2277676,5.38793675 L21.0739817,29.5157145 L25.7308165,28.4083726 L27.3278685,20.9392359 C27.6745872,21.508159 28.3828257,22.0318769 29.9502752,22.0318769 C35.9477309,22.0318769 37.5455229,15.3565863 37.5455229,11.2105778 C37.5455229,7.5732188 35.8874159,6.37583419 33.7778716,6.37583419" id="Fill-5" fill="#FFD47E"></path>
                    <g id="Group-9" transform="translate(37.003058, 6.361979)">
                        <mask id="mask-2" fill="white">
                            <use xlink:href="#path-1"></use>
                        </mask>
                        <g id="Clip-8"></g>
                        <path d="M23.0315174,9.99735299 C22.6244838,11.8084983 21.3889517,12.706353 20.4694257,12.706353 C19.9117896,12.706353 18.9175174,12.646447 18.9175174,10.3115838 C18.9175174,7.42286581 20.6203982,1.9151906 23.2424349,1.9151906 C24.2370771,1.9151906 24.5083095,2.70830171 24.5083095,3.08243846 L23.0315174,9.99735299 Z M6.42972538,18.0350453 C6.037863,19.8759598 5.2841107,20.7591137 4.63618716,20.7591137 C3.92794862,20.7591137 3.59677125,20.2048915 3.59677125,19.7561479 C3.59677125,18.528994 5.01324832,17.7355154 6.61030031,17.1518915 L6.42972538,18.0350453 Z M42.2253737,2.46867778 C42.2253737,1.27129316 41.4871627,0.163583761 40.0858569,0.163583761 C38.6090648,0.163583761 37.4334777,1.10701111 36.3633492,2.06440427 L36.7552116,0.163583761 L32.3096642,0.163583761 L29.705019,12.3704385 C29.3527498,12.6942248 28.9460862,12.8860709 28.4868783,12.8860709 C27.6580098,12.8860709 27.2206336,12.4520282 27.2206336,11.5688744 C27.2206336,11.2546436 27.2509761,10.9253444 27.3564349,10.5809769 L29.571808,0.163583761 L25.1262606,0.163583761 L24.7947131,1.79537863 L24.7947131,1.57045556 C24.7947131,0.687669231 24.0413309,0.0140025641 22.2933064,0.0140025641 C16.9134318,0.0140025641 14.3513401,6.56984872 14.3513401,10.7456265 C14.3513401,11.3141821 14.4053645,11.8191564 14.496022,12.2767205 C13.7726122,13.3704641 12.8634471,13.9662162 11.6438263,14.3829855 L14.7028691,0.163583761 L10.2576917,0.163583761 L8.10226361,10.1917718 C7.63528502,11.6287803 6.83638899,12.706353 5.69114434,12.706353 C4.98290581,12.706353 4.77198838,12.0628231 4.77198838,11.3593872 C4.77198838,11.0752932 4.80196086,10.8353017 4.86227584,10.5809769 L7.07764893,0.163583761 L2.63210153,0.163583761 L0.53735841,9.99735299 C0.386755963,10.7757632 0.296468502,11.4490624 0.296468502,12.0029171 C0.296468502,14.5774043 1.74291804,15.6700453 3.59677125,15.6700453 C4.66652966,15.6700453 5.96237676,15.4006521 7.30373761,13.9636436 L6.92704648,15.6101393 C4.60621468,16.343712 1.89352049,17.600635 1.89352049,20.1751222 C1.89352049,22.1659855 3.47577125,23.1538829 5.34442569,23.1538829 C7.39402508,23.1538829 10.0160618,22.330635 10.9052453,17.9450026 L11.3725939,15.7299513 C12.5259792,15.441447 13.8203462,14.8861222 14.9385786,13.6071479 C15.6856703,15.0860538 17.0503431,15.6700453 18.4653401,15.6700453 C20.6803431,15.6700453 22.0672177,14.2330368 23.0614899,12.8559342 C23.2724073,14.6972162 24.357707,15.6700453 26.0909303,15.6700453 C26.9194287,15.6700453 28.0646734,15.493635 29.2162086,14.6623017 L29.0393339,15.4903274 L33.4852514,15.4903274 L35.9566856,3.84578034 C36.7252391,3.14234444 37.2525327,2.67816496 38.2020312,2.67816496 C39.1060159,2.67816496 38.2771474,4.69879744 39.9951994,4.69879744 C41.4871627,4.69879744 42.2253737,3.53118205 42.2253737,2.46867778 L42.2253737,2.46867778 Z" id="Fill-7" fill="#FFD47E" mask="url(#mask-2)"></path>
                    </g>
                    <g id="Group-12" transform="translate(77.336391, 0.114115)" fill="#FFD47E">
                        <path d="M8.95551713,16.2452162 L8.83488716,16.739165 C8.36753853,18.2059427 7.25226636,18.9542162 6.42339786,18.9542162 C5.86576177,18.9542162 4.8714896,18.8943103 4.8714896,16.559447 C4.8714896,13.6707291 6.57437034,8.16305385 9.19640703,8.16305385 C10.1610768,8.16305385 10.3719942,8.86648974 10.4622817,9.2251906 L8.95551713,16.2452162 Z M13.1446333,17.7270624 C13.1446333,17.4426009 13.1746058,17.1732077 13.2804346,16.8288402 L16.8219972,0.274942735 L12.2558199,0.888703419 L10.7486853,7.93813077 L10.7486853,7.8183188 C10.7486853,6.93553248 9.99530306,6.26186581 8.24727859,6.26186581 C2.86740398,6.26186581 0.305312232,12.817712 0.305312232,16.9934897 C0.305312232,20.6308487 2.30976789,21.9179085 4.41931223,21.9179085 C6.48371284,21.9179085 7.84024495,20.6907547 8.80491468,19.3735581 C9.16606453,21.1843359 10.4323092,21.9179085 12.0145599,21.9179085 C13.6419544,21.9179085 15.2545477,20.9450795 15.4055202,18.7597974 C15.1942327,18.8494726 14.9984865,18.9542162 14.410508,18.9542162 C13.4613795,18.9542162 13.1446333,18.4304983 13.1446333,17.7270624 L13.1446333,17.7270624 Z" id="Fill-10"></path>
                    </g>
                </g>
            </g>
        </g>
    </g>
</svg>