<svg width="14" height="16" viewBox="0 0 14 16" xmlns="http://www.w3.org/2000/svg"><title>16F10522-C324-4C53-A3DE-641D9909E5AC</title><path d="M4.39 9.193a3.4 3.4 0 0 1 0-4.806 3.4 3.4 0 0 1 4.804.001 3.398 3.398 0 0 1 .179 4.606 2.987 2.987 0 0 1-.18.199 3.4 3.4 0 0 1-4.804 0m7.207 2.4a6.796 6.796 0 0 0-.001-9.606 6.797 6.797 0 0 0-9.606 0 6.798 6.798 0 0 0 .257 9.854c.022.025.035.048.056.068l3.814 3.813a.96.96 0 0 0 1.347.005l3.742-3.742a.638.638 0 0 0 .083-.104c.109-.098.21-.19.308-.288" fill="#FF4541" fill-rule="evenodd"/></svg>