<?xml version="1.0" encoding="UTF-8" standalone="no"?>
<svg width="120px" height="63px" viewBox="0 0 120 63" version="1.1" xmlns="http://www.w3.org/2000/svg" xmlns:xlink="http://www.w3.org/1999/xlink">
    <!-- Generator: Sketch 42 (36781) - http://www.bohemiancoding.com/sketch -->
    <title>Page 1</title>
    <desc>Created with Sketch.</desc>
    <defs>
        <polygon id="path-1" points="-1.25424465e-16 51.0836774 -1.25424465e-16 0.130218144 31.2899776 0.130218144 31.2899776 51.0836774 -8.78032732e-16 51.0836774"></polygon>
    </defs>
    <g id="Page-1" stroke="none" stroke-width="1" fill="none" fill-rule="evenodd">
        <g id="Desktop-HD-Copy" transform="translate(-130.000000, -3829.000000)">
            <g id="Page-1" transform="translate(130.000000, 3829.000000)">
                <path d="M92.7604175,33.2180199 L92.7604175,37.1015917 L90.5245224,37.5815973 L90.5245224,33.5438675 C90.5245224,33.4410955 90.558679,33.3383236 90.6357579,33.2437129 C90.7128369,33.1494045 90.7986818,33.0895549 90.8926879,33.0723255 L92.4267108,32.7464779 C92.5034875,32.7295507 92.572103,32.7552437 92.6491819,32.8150933 C92.7262609,32.8752451 92.7604175,32.9610899 92.7604175,33.0638619 L92.7604175,33.2180199 Z M93.8830502,31.2807681 C93.4804259,30.9379933 93.0004203,30.8264555 92.4267108,30.9464569 L90.8926879,31.2723045 C90.3271397,31.4007695 89.830207,31.7178512 89.4191191,32.2323157 C89.0077289,32.7552437 88.8018826,33.3038647 88.8018826,33.904174 L88.8018826,41.7136354 L90.5245224,41.3533289 L90.5245224,39.2960757 L92.7604175,38.8160701 L92.7604175,40.8733233 L94.482755,40.5045533 L94.482755,32.858318 L94.482755,32.7038577 C94.482755,32.1038507 94.277211,31.6323087 93.8830502,31.2807681 L93.8830502,31.2807681 Z" id="Fill-1" fill="#FF4541"></path>
                <path d="M86.0003789,32.9612108 C85.6062181,32.6178315 85.117749,32.506596 84.5440395,32.6268996 L83.0184801,32.952445 C82.4444684,33.0724464 81.9475356,33.3898305 81.5361455,33.9124562 C81.1250575,34.4272229 80.9279772,34.9840052 80.9279772,35.5840122 L80.9279772,41.2074532 C80.9279772,41.7989966 81.1250575,42.2708409 81.5361455,42.6136157 C81.9475356,42.9560882 82.4444684,43.0679283 83.0184801,42.9479269 L84.5095807,42.6308451 C85.0835924,42.5108437 85.5720616,42.1849961 85.9831495,41.6708339 C86.3945397,41.1560672 86.6000836,40.590519 86.6000836,39.9989756 L86.6000836,35.7212431 L83.7641815,36.3212501 L83.7641815,38.0441921 L84.8862097,37.8041893 L84.8862097,40.3592821 C84.8862097,40.4705176 84.8435896,40.564826 84.7665106,40.6591344 C84.6978952,40.7531406 84.6035868,40.8132924 84.5095807,40.8305218 L83.0184801,41.1476036 C82.9157082,41.1732966 82.8301656,41.1476036 82.7530866,41.0874518 C82.6760076,41.0279045 82.6418511,40.9417574 82.6418511,40.8389854 L82.6418511,35.2155445 C82.6418511,35.1124702 82.6760076,35.0096982 82.7530866,34.9241557 C82.8301656,34.8298473 82.9157082,34.7696954 83.0184801,34.7440024 L84.5440395,34.4181548 C84.6211185,34.4012276 84.6978952,34.4272229 84.7665106,34.4955361 C84.8435896,34.5550833 84.8862097,34.6324646 84.8862097,34.7440024 L84.8862097,35.2841599 L86.6000836,34.9153898 L86.6000836,34.3755347 C86.6000836,33.7752254 86.4030033,33.3039856 86.0003789,32.9612108" id="Fill-3" fill="#FF4541"></path>
                <path d="M104.362135,29.0520972 C103.976438,28.7174837 103.419353,28.615014 102.691486,28.769172 L102.279793,28.8550168 C101.611473,29.0007112 101.123004,29.3005636 100.823454,29.7464126 C100.523299,29.420565 100.035132,29.3262566 99.3671142,29.471951 L98.9212652,29.574723 C98.2354134,29.7207196 97.6958605,30.0637967 97.302002,30.5607294 C96.8903095,31.0748916 96.6850678,31.6322785 96.6850678,32.2322855 L96.6850678,40.0417469 L98.407103,39.6732791 L98.407103,31.8638177 C98.407103,31.7353527 98.4412596,31.6322785 98.5186409,31.5464336 C98.5866517,31.4693546 98.6727988,31.4179687 98.7755708,31.3922757 L99.6325078,31.2121224 C99.7268162,31.194893 99.8120565,31.2121224 99.8722083,31.2807378 C99.9323601,31.3408897 99.9665167,31.4267345 99.9665167,31.5295065 L99.9665167,39.3389679 L101.680088,38.9789637 L101.680088,31.1695023 C101.680088,31.066428 101.722708,30.963656 101.791324,30.8693476 C101.868705,30.7750392 101.954248,30.7151897 102.057322,30.6979603 L102.905493,30.5181093 C103.008265,30.492114 103.085344,30.5181093 103.145496,30.5864224 C103.213809,30.646272 103.239502,30.7324191 103.239502,30.8351911 L103.239502,38.6443502 L104.961537,38.2758824 L104.961537,30.4748846 C104.961537,29.8748776 104.764457,29.4036378 104.362135,29.0520972" id="Fill-5" fill="#FF4541"></path>
                <path d="M119.356385,25.8632036 C118.962225,25.5201265 118.473755,25.4085887 117.900046,25.5285901 L116.374487,25.8544377 C115.800475,25.9829027 115.312006,26.3002868 114.90122,26.8147512 C114.489527,27.3289134 114.283984,27.885998 114.283984,28.4863072 L114.283984,29.4463184 C114.283984,30.0463254 114.489527,30.5094039 114.90122,30.8180221 C115.303542,31.1351039 115.800475,31.2294123 116.374487,31.1094109 L117.865587,30.7923291 C117.959593,30.7750997 118.053902,30.7923291 118.130981,30.8521787 C118.199596,30.9207941 118.242518,31.0066389 118.242518,31.1094109 L118.242518,33.2697384 C118.242518,33.3725104 118.199596,33.4755846 118.130981,33.5695907 C118.053902,33.6551333 117.968359,33.7152851 117.865587,33.7409781 L116.374487,34.0583622 C116.271715,34.0752893 116.186172,34.0583622 116.109093,33.9982104 C116.040478,33.9295949 115.997857,33.8437501 115.997857,33.7409781 L115.997857,32.5669594 L114.283984,32.9351249 L114.283984,34.1097482 C114.283984,34.7097552 114.489527,35.1812972 114.90122,35.5243743 C115.312006,35.867149 115.800475,35.969921 116.374487,35.8499196 L117.865587,35.5328378 C118.439599,35.4128364 118.928068,35.0957546 119.338854,34.5812902 C119.750546,34.0583622 119.95609,33.5009753 119.95609,32.9009683 L119.95609,30.7406409 C119.95609,30.1406338 119.75901,29.6863212 119.356385,29.3692395 C118.962225,29.0433918 118.465594,28.9490834 117.865587,29.0775484 L116.374487,29.3949325 C116.271715,29.4118596 116.186172,29.3949325 116.109093,29.3347806 C116.040478,29.2749311 115.997857,29.1890862 115.997857,29.0863142 L115.997857,28.1260008 C115.997857,28.0232288 116.040478,27.9204568 116.109093,27.8261484 C116.186172,27.73184 116.271715,27.6716882 116.374487,27.654761 L117.900046,27.3289134 C117.977125,27.311684 118.053902,27.337377 118.130981,27.3975288 C118.199596,27.4573784 118.242518,27.5432232 118.242518,27.6459952 L118.242518,28.1861526 L119.95609,27.8261484 L119.95609,27.285991 C119.95609,26.685984 119.75901,26.2147442 119.356385,25.8632036" id="Fill-7" fill="#FF4541"></path>
                <polygon id="Fill-9" fill="#FF4541" points="107.163729 37.8129249 112.844299 36.6044473 112.844299 34.804124 108.885764 35.6441338 108.885764 32.7039484 111.653656 32.112405 111.653656 30.3979265 108.885764 30.9807041 108.885764 29.2405327 112.844299 28.4005229 112.844299 26.6089654 107.163729 27.8177453"></polygon>
                <g id="Group-13" transform="translate(0.000000, 11.399831)">
                    <mask id="mask-2" fill="white">
                        <use xlink:href="#path-1"></use>
                    </mask>
                    <g id="Clip-12"></g>
                    <path d="M25.6459013,23.8499912 L11.9796461,11.7715631 C11.6456372,11.4714084 11.4313274,11.1543266 11.208554,10.7598636 C10.8657792,10.1426272 10.6686988,9.4398482 10.6686988,8.68538095 C10.6686988,6.31950952 12.5793508,4.40764841 14.9443155,4.40764841 C17.3005142,4.40764841 19.2111663,6.31950952 19.2111663,8.68538095 C19.2111663,11.0427888 16.1778815,12.9546499 14.9443155,12.9546499 L14.927086,12.9546499 L18.7486923,16.3406844 C21.5589015,14.9348242 23.4867829,12.0372589 23.4867829,8.68538095 C23.4867829,3.96210165 19.656713,0.130218144 14.9443155,0.130218144 C10.223152,0.130218144 6.39308216,3.96210165 6.39308216,8.68538095 C6.39308216,10.5712468 7.03570931,12.2857252 8.03834066,13.7260443 L19.8453298,30.605133 C20.8050388,31.9768366 21.2502832,33.6311632 21.1048911,35.3111829 C20.9335037,37.3261182 19.9308724,39.0662896 18.4742307,40.2406107 C17.094668,41.3547798 15.2955538,41.9547868 13.3933654,41.7833994 C11.4570203,41.612012 9.76914171,40.6861574 8.59512297,39.3144538 C6.85585834,37.2659664 6.62462139,34.4881002 5.87045642,31.9937638 C4.89382033,28.7621896 3.92564783,26.9104803 0.901128904,25.2730808 C0.592510693,25.1016934 0.292658327,25.1443136 0.129734511,25.3072374 C-0.0588822992,25.50462 -0.0244234588,25.8389313 0.121270937,26.0529388 C1.69761175,28.4877279 1.20944484,30.8451358 0.849440643,33.2626955 C0.643896683,34.6343991 0.584047118,35.9801075 0.729439243,37.3602748 C1.46637479,44.5180409 7.19863312,50.3814847 14.6272337,51.0244141 C23.0581633,51.7619542 30.4955297,45.5300427 31.232163,37.0942767 C31.6178602,32.6282296 30.0499829,28.4363419 27.2394715,25.3843164 C26.7340752,24.8272318 26.2026836,24.3469239 25.6459013,23.8499912" id="Fill-11" fill="#FF4541" mask="url(#mask-2)"></path>
                </g>
                <path d="M43.9304875,20.5482297 C45.3100502,20.2568409 46.1839143,18.9023667 45.8925255,17.5221994 C45.601439,16.1504958 44.2475693,15.2675636 42.8680066,15.5589523 C41.4972097,15.8503411 40.6145798,17.2048154 40.9059685,18.5849826 C41.1973573,19.9651499 42.551227,20.8396185 43.9304875,20.5482297" id="Fill-14" fill="#FF4541"></path>
                <path d="M57.9224392,26.017422 C57.8967462,29.1806831 57.2196602,32.6011764 55.1206936,32.9351854 C54.4179146,33.0464209 53.8269758,32.738105 53.8354393,31.9924036 L53.8439029,23.1110909 C53.8439029,22.1940021 54.3752945,21.2339909 55.4803956,20.9426021 C57.5025854,20.3939811 57.9481322,23.1110909 57.9224392,26.017422 M59.841857,19.6567432 C57.9136733,18.0964228 54.8722272,19.3565886 53.8523665,20.6512133 L53.8439029,19.450897 L49.6456675,20.9767586 L49.6456675,31.8980952 C49.6456675,32.9781078 48.8999661,33.9898072 47.897637,34.22981 C46.7236183,34.512433 46.089757,33.7498044 46.089757,32.6951826 L46.1066841,21.1055259 L41.8999852,22.6313875 L41.8739899,33.6896526 C41.8739899,34.7182792 41.0944342,35.6525974 40.1347253,35.8841366 C38.9610088,36.1673641 38.3268452,35.3956675 38.3268452,34.3498114 L38.3268452,26.7546598 C38.3356111,24.448638 36.1248044,23.2057015 34.0856874,23.6600141 C32.3291934,24.0541749 31.2322536,25.1771099 30.5639335,26.1029646 L30.5811629,18.5419695 L26.297385,20.0853629 L26.297385,34.4181246 L26.3484687,34.4613493 C26.6313939,34.7095134 26.9140168,34.9585843 27.1881762,35.2239778 C27.479565,35.4987417 27.762188,35.7810624 28.0194202,36.0642899 C29.0217493,37.1443025 29.8699204,38.3615459 30.5470063,39.6818636 L30.5639335,28.7260682 C30.5639335,27.6460556 31.3008691,26.6346584 32.311964,26.3946556 C33.4859827,26.1117304 34.1113804,26.8746612 34.1113804,27.9289808 L34.1113804,35.5244347 C34.1113804,37.8213885 36.3134212,39.0730907 38.3610018,38.6103146 C40.1090323,38.2158515 41.2144356,37.1013801 41.8739899,36.1673641 C42.0453773,35.9182932 42.1910717,35.6958221 42.3026095,35.48121 C43.0392428,36.7156829 44.6243495,37.2987627 46.1239136,36.9644515 C47.6062482,36.6301403 48.7887306,35.7384422 49.6456675,34.4955058 L49.6541311,43.7368227 L53.8182099,41.7732734 L53.8354393,33.8954988 C54.4780665,34.6838204 55.8316339,34.881203 56.8427288,34.6671955 C59.5075458,34.1013451 61.2984987,31.7953232 61.7095866,26.8402024 C61.958053,23.7114001 61.5638922,21.0453741 59.841857,19.6567432" id="Fill-16" fill="#FF4541"></path>
                <path d="M113.427319,18.885107 C113.255931,19.5452659 112.793155,20.2480449 112.047756,20.4109687 C110.762502,20.6766645 110.119874,19.8795771 109.871106,18.6964902 C109.665864,17.736479 109.554024,16.716316 109.537399,15.7133824 C109.382939,8.6326952 113.530091,7.83530554 113.530091,10.1156344 L113.521325,17.5563258 C113.521325,17.9764818 113.538554,18.4564874 113.427319,18.885107 L113.427319,18.885107 Z M86.617434,24.0370059 C86.617434,24.2256228 86.5826729,24.4142396 86.5400527,24.5943928 C86.3602018,25.2542494 85.9058891,25.9573306 85.1523287,26.1202544 C83.875538,26.3859502 83.2326086,25.5885606 82.9841422,24.405776 C82.7785982,23.4454625 82.6670604,22.4252995 82.6416697,21.4223659 C82.4962776,14.3416787 86.6515905,13.5445913 86.643127,15.8246179 L86.617434,24.0370059 Z M71.8968592,35.5671153 C71.8968592,37.0672839 71.4343853,38.5843797 69.4381907,38.9960722 C68.7523388,39.133303 67.8700112,38.8500755 67.5958518,38.0100657 C67.0559966,36.3385097 69.2241831,34.9414153 70.5091352,34.2467976 L71.9059273,33.4926327 L71.8968592,35.5671153 Z M119.69913,18.6707972 C119.630817,18.6880266 119.604821,18.7137196 119.562201,18.7563398 C119.42497,18.8935706 119.24512,18.9966449 119.039273,19.039265 C118.730957,19.0994168 118.431105,19.0308014 118.191404,18.8678776 C117.908479,18.6707972 117.728326,18.3277202 117.728326,17.9849454 L117.754321,0.000151135265 L113.555784,1.5257105 L113.538554,7.93807752 C113.015928,7.54361448 112.005136,7.47530134 111.344977,7.61253216 C105.998416,8.70947191 105.039009,15.4476866 105.990255,20.0421986 C105.938869,21.0795911 105.21886,22.0223729 104.242224,22.2542144 C103.068205,22.5371396 102.442808,21.7739065 102.442808,20.7195869 L102.451271,13.5016689 C102.451271,13.3816675 102.451271,13.2701297 102.425276,13.1501283 C102.356963,12.8756666 102.185878,12.6187367 101.911416,12.4642764 C101.731867,12.3615045 101.526021,12.318582 101.328941,12.318582 C99.3838298,12.3871975 96.7105492,11.8041176 95.5625258,9.89255877 L94.4057364,10.3127148 L94.388507,22.3826793 C94.388507,23.4626919 93.6518737,24.4743914 92.6407788,24.7143942 C91.4670624,24.9973194 90.8413624,24.2343886 90.8413624,23.1797667 L90.8582895,11.5813442 L86.6515905,13.1072059 L86.6515905,13.6473633 C86.120199,13.2529002 85.1178699,13.1845871 84.4580133,13.3215157 C79.1543746,14.4102941 78.1605091,21.0538981 79.0860615,25.6487124 C78.9914508,26.4974881 78.7429844,27.22596 78.3575895,27.8604259 C77.8261979,28.7433581 77.0551058,29.3862875 76.1555487,29.8747567 L76.1295534,14.7189123 L71.931318,16.244774 L71.9143909,27.22596 C71.9143909,28.2805819 71.1517623,29.2575203 70.1663604,29.4978253 C68.9923416,29.7807506 68.3581781,29.0090539 68.3581781,27.9635001 L68.3581781,21.7312863 C68.3581781,20.9937463 68.3324851,20.0766575 68.032935,19.3735762 C67.4589232,17.993409 65.9593591,17.1706286 64.4425656,17.4964762 C63.0291486,17.7963286 62.0349809,18.987879 61.9237453,20.3595827 C61.9237453,20.3937392 61.9237453,20.4194322 61.9325111,20.4538911 C61.949136,20.5738925 62.0694397,20.6422056 62.1806753,20.6168149 C62.2492907,20.6080491 62.2749837,20.5738925 62.3179061,20.5309701 C62.4548346,20.3937392 62.6349879,20.2909673 62.8492977,20.2480449 C63.1488478,20.1881953 63.4487001,20.2568107 63.6887029,20.4194322 C63.9716281,20.6168149 64.1517814,20.9595897 64.1517814,21.3026667 L64.1430155,29.1378211 C64.1430155,31.4350772 66.3447541,32.6867794 68.3929392,32.223701 C70.149131,31.8295402 71.2460707,30.7063029 71.9059273,29.7807506 L71.9059273,32.172315 L69.7120478,33.3554018 C67.827391,34.3755649 65.7108928,36.0129643 65.8738166,38.3359134 C66.0621311,40.933324 69.0694206,42.2364123 72.1027054,41.087482 C76.3353996,39.4933072 76.1640122,36.6812845 76.1640122,35.043885 L76.1555487,31.1950744 L76.7295604,30.8776903 C77.8349637,30.2864492 78.7348231,29.4805959 79.351455,28.4604329 C79.5228424,28.1862735 79.6682345,27.8861189 79.7970017,27.5775007 C80.4825513,28.6490497 81.6731949,29.3947511 83.5929151,28.9833609 C84.6980161,28.7521239 85.5292601,28.1430488 86.1458919,27.3888839 C86.5058961,26.9430348 86.7885191,26.4373362 87.0285219,25.9144082 C87.7911504,27.2431895 89.4361067,27.7488881 90.8670554,27.4490357 C94.1832653,26.7371886 95.5365305,24.6457788 95.5365305,22.5026807 L95.5540622,12.8756666 C96.0854538,13.7842918 97.027631,14.3846011 97.7131806,14.7446053 C98.1073414,14.9504515 98.2530358,15.1901521 98.2445722,15.6532305 L98.2270405,21.8939079 C98.2188792,24.1999298 100.429384,25.4428662 102.476964,24.9885536 C104.224995,24.5943928 105.330398,23.4711555 105.990255,22.5371396 C106.229653,22.1940625 106.409806,21.8939079 106.538573,21.6197485 C107.189362,22.8197625 108.414766,23.7111583 110.479576,23.2740751 C111.593746,23.0425359 112.415921,22.4340653 113.033158,21.6711345 C113.409787,21.2083583 113.710244,20.6766645 113.949944,20.1368093 C114.584108,21.3797457 116.006291,22.0997541 117.437542,21.7911359 C118.850959,21.4909813 119.845127,20.2994308 119.956362,18.9280294 L119.956362,18.833721 C119.930669,18.7221832 119.819131,18.6451042 119.69913,18.6707972 L119.69913,18.6707972 Z" id="Fill-18" fill="#FF4541"></path>
            </g>
        </g>
    </g>
</svg>